<?xml version="1.0" encoding="UTF-8" standalone="no" ?>
<!DOCTYPE svg PUBLIC "-//W3C//DTD SVG 1.1//EN" "http://www.w3.org/Graphics/SVG/1.1/DTD/svg11.dtd">
<svg xmlns="http://www.w3.org/2000/svg" xmlns:xlink="http://www.w3.org/1999/xlink" version="1.1" width="500" height="500" viewBox="0 0 500 500" xml:space="preserve">
<desc>Created with Fabric.js 4.6.0</desc>
<defs>
</defs>
<g transform="matrix(1 0 0 1 250 250)" id="-DaUwkFeBUtK6h1Uv6_S4"  >
<linearGradient id="SVGID_1" gradientUnits="userSpaceOnUse" gradientTransform="matrix(1 0 0 1 50 30)"  x1="57.75401069518716" y1="67.6631016042781" x2="335.8288770053476" y2="371.9411764705882">
<stop offset="0%" style="stop-color:#0E0090;stop-opacity: 1"/>
<stop offset="49.932459451226165%" style="stop-color:#0E0090;stop-opacity: 1"/>
<stop offset="100%" style="stop-color:#0E0124;stop-opacity: 1"/>
</linearGradient>
<filter id="SVGID_0" y="-23%" height="146%" x="-23%" width="146%" >
	<feGaussianBlur in="SourceAlpha" stdDeviation="2.45"></feGaussianBlur>
	<feOffset dx="7" dy="8" result="oBlur" ></feOffset>
	<feFlood flood-color="rgb(0,0,0)" flood-opacity="0.5"/>
	<feComposite in2="oBlur" operator="in" />
	<feMerge>
		<feMergeNode></feMergeNode>
		<feMergeNode in="SourceGraphic"></feMergeNode>
	</feMerge>
</filter>
<path style="stroke: none; stroke-width: 1; stroke-dasharray: none; stroke-linecap: butt; stroke-dashoffset: 0; stroke-linejoin: miter; stroke-miterlimit: 4; fill: url(#SVGID_1); fill-rule: nonzero; opacity: 1;filter: url(#SVGID_0);" vector-effect="non-scaling-stroke"  transform=" translate(-250, -249)" d="M 274.46 31.62 L 282.43 32.87 L 290.29 34.45 L 298.04 36.37 L 305.68 38.61 L 313.19 41.17 L 320.57 44.04 L 327.82 47.22 L 334.93 50.7 L 341.88 54.46 L 348.68 58.51 L 355.32 62.83 L 361.79 67.42 L 368.09 72.28 L 374.2 77.39 L 380.13 82.74 L 385.87 88.34 L 391.4 94.17 L 396.72 100.23 L 401.84 106.51 L 406.73 113 L 411.39 119.7 L 415.83 126.59 L 420.02 133.68 L 423.97 140.95 L 427.67 148.39 L 431.1 156.01 L 434.28 163.79 L 437.18 171.73 L 439.8 179.81 L 442.14 188.04 L 444.19 196.4 L 445.94 204.89 L 447.38 213.5 L 448.52 222.22 L 449.34 231.05 L 449.84 239.98 L 450 249 L 449.84 258.02 L 449.34 266.95 L 448.52 275.78 L 447.38 284.5 L 445.94 293.11 L 444.19 301.6 L 442.14 309.96 L 439.8 318.19 L 437.18 326.27 L 434.28 334.21 L 431.1 341.99 L 427.67 349.61 L 423.97 357.05 L 420.02 364.32 L 415.83 371.41 L 411.39 378.3 L 406.73 385 L 401.84 391.49 L 396.72 397.77 L 391.4 403.83 L 385.87 409.66 L 380.13 415.26 L 374.2 420.61 L 368.09 425.72 L 361.79 430.58 L 355.32 435.17 L 348.68 439.49 L 341.88 443.54 L 334.93 447.3 L 327.82 450.78 L 320.57 453.96 L 313.19 456.83 L 305.68 459.39 L 298.04 461.63 L 290.29 463.55 L 282.43 465.13 L 274.46 466.38 L 266.4 467.27 L 258.24 467.82 L 250 468 L 241.77 467.82 L 233.61 467.27 L 225.55 466.38 L 217.58 465.13 L 209.72 463.55 L 201.97 461.63 L 194.33 459.39 L 186.82 456.83 L 179.43 453.96 L 172.19 450.78 L 165.08 447.3 L 158.13 443.54 L 151.32 439.49 L 151.1 439.34 L 151.1 439.35 L 144.68 435.17 L 138.21 430.58 L 131.91 425.72 L 125.8 420.61 L 119.87 415.26 L 114.14 409.66 L 108.61 403.83 L 103.28 397.77 L 98.17 391.49 L 93.28 385 L 88.61 378.3 L 84.18 371.41 L 79.98 364.32 L 76.22 357.4 L 76.22 357.4 L 76.04 357.05 L 72.34 349.61 L 68.9 341.99 L 65.73 334.21 L 62.83 326.27 L 60.21 318.19 L 57.87 309.96 L 55.82 301.6 L 54.07 293.11 L 52.62 284.5 L 51.49 275.78 L 50.67 266.95 L 50.17 258.02 L 50 249 L 50.17 239.98 L 50.67 231.05 L 51.49 222.22 L 52.62 213.5 L 54.07 204.89 L 55.82 196.4 L 57.87 188.04 L 60.21 179.81 L 62.83 171.73 L 65.73 163.79 L 68.9 156.01 L 72.34 148.39 L 76.04 140.95 L 78.93 135.62 L 78.93 135.62 L 79.98 133.68 L 84.18 126.59 L 88.61 119.7 L 93.28 113 L 98.17 106.51 L 103.28 100.23 L 108.61 94.17 L 114.14 88.34 L 119.87 82.74 L 125.8 77.39 L 131.91 72.28 L 138.21 67.42 L 144.68 62.83 L 150.83 58.83 L 150.83 58.83 L 151.32 58.51 L 158.13 54.46 L 165.08 50.7 L 172.19 47.22 L 179.43 44.04 L 186.82 41.17 L 194.33 38.61 L 201.97 36.37 L 209.72 34.45 L 217.58 32.87 L 225.55 31.62 L 233.61 30.73 L 241.77 30.18 L 250 30 L 258.24 30.18 L 266.4 30.73 L 266.4 30.73 L 274.46 31.62 Z M 247.69 340.48 L 246.93 340.58 L 246.17 340.72 L 245.41 340.89 L 244.66 341.09 L 243.92 341.33 L 243.19 341.59 L 242.46 341.88 L 241.75 342.21 L 241.04 342.57 L 240.35 342.95 L 239.68 343.37 L 239.01 343.82 L 238.37 344.3 L 237.73 344.81 L 237.12 345.35 L 236.52 345.93 L 235.95 346.53 L 208.04 377.06 L 208.11 377.09 L 212.72 378.88 L 217.42 380.48 L 222.19 381.88 L 227.04 383.08 L 231.95 384.07 L 236.93 384.85 L 241.97 385.41 L 247.07 385.75 L 252.22 385.86 L 257.36 385.75 L 262.46 385.41 L 267.5 384.85 L 272.48 384.07 L 277.39 383.08 L 282.24 381.88 L 287.01 380.48 L 291.71 378.88 L 293.12 378.33 L 264.05 346.53 L 263.47 345.93 L 262.88 345.35 L 262.26 344.81 L 261.63 344.3 L 260.99 343.82 L 260.32 343.37 L 259.64 342.95 L 258.95 342.57 L 258.25 342.21 L 257.54 341.88 L 256.81 341.59 L 256.08 341.33 L 255.34 341.09 L 254.59 340.89 L 253.83 340.72 L 253.07 340.58 L 252.31 340.48 L 251.54 340.4 L 250.77 340.35 L 250 340.34 L 249.23 340.35 L 248.46 340.4 L 248.46 340.4 L 247.69 340.48 Z M 337.81 235.2 L 337.29 235.9 L 336.8 236.61 L 336.33 237.33 L 335.9 238.06 L 335.5 238.81 L 335.13 239.57 L 334.78 240.34 L 334.47 241.12 L 334.19 241.9 L 333.93 242.7 L 333.71 243.5 L 333.51 244.31 L 333.35 245.12 L 333.22 245.94 L 333.11 246.76 L 333.04 247.58 L 332.99 248.41 L 332.98 249.24 L 332.99 250.06 L 333.04 250.89 L 333.11 251.71 L 333.22 252.53 L 333.35 253.35 L 333.51 254.16 L 333.71 254.97 L 333.93 255.77 L 334.19 256.57 L 334.47 257.35 L 334.78 258.13 L 335.13 258.9 L 335.5 259.66 L 335.9 260.41 L 336.33 261.14 L 336.8 261.86 L 337.29 262.57 L 337.81 263.27 L 338.36 263.94 L 338.94 264.61 L 369.09 297.58 L 369.2 297.29 L 370.84 292.23 L 372.3 287.09 L 373.58 281.87 L 374.67 276.56 L 375.58 271.18 L 376.29 265.73 L 376.8 260.21 L 377.11 254.63 L 377.22 248.99 L 377.11 243.35 L 376.8 237.77 L 376.29 232.25 L 375.58 226.8 L 374.67 221.42 L 373.58 216.11 L 372.3 210.89 L 370.84 205.75 L 369.22 200.75 L 338.94 233.86 L 338.36 234.53 L 338.36 234.53 L 337.81 235.2 Z M 132.13 210.89 L 130.85 216.11 L 129.76 221.42 L 128.85 226.8 L 128.14 232.25 L 127.63 237.77 L 127.32 243.35 L 127.22 248.99 L 127.32 254.63 L 127.63 260.21 L 128.14 265.73 L 128.85 271.18 L 129.76 276.56 L 130.85 281.87 L 132.13 287.09 L 133.59 292.23 L 134.52 295.08 L 164.06 264.27 L 164.65 263.62 L 165.22 262.96 L 165.76 262.28 L 166.27 261.58 L 166.75 260.87 L 167.19 260.15 L 167.61 259.41 L 168 258.66 L 168.37 257.9 L 168.7 257.13 L 169 256.35 L 169.27 255.56 L 169.51 254.77 L 169.72 253.96 L 169.9 253.15 L 170.06 252.34 L 170.18 251.52 L 170.27 250.7 L 170.34 249.88 L 170.37 249.05 L 170.37 248.23 L 170.35 247.4 L 170.29 246.58 L 170.21 245.76 L 170.09 244.94 L 169.94 244.12 L 169.77 243.31 L 169.56 242.5 L 169.33 241.7 L 169.06 240.91 L 168.76 240.13 L 168.44 239.35 L 168.08 238.58 L 167.7 237.83 L 167.28 237.09 L 166.83 236.35 L 166.36 235.64 L 165.85 234.93 L 165.31 234.24 L 164.75 233.57 L 135.44 200.12 L 135.23 200.69 L 133.59 205.75 L 133.59 205.75 L 132.13 210.89 Z M 236.93 113.13 L 231.95 113.91 L 227.04 114.9 L 222.19 116.09 L 217.42 117.5 L 212.72 119.1 L 208.11 120.89 L 207.72 121.06 L 235.95 151.94 L 236.52 152.55 L 237.12 153.12 L 237.73 153.66 L 238.37 154.17 L 239.01 154.65 L 239.68 155.1 L 240.35 155.52 L 241.04 155.91 L 241.75 156.26 L 242.46 156.59 L 243.19 156.88 L 243.92 157.14 L 244.66 157.38 L 245.41 157.58 L 246.17 157.75 L 246.93 157.89 L 247.69 158 L 248.46 158.07 L 249.23 158.12 L 250 158.13 L 250.77 158.12 L 251.54 158.07 L 252.31 158 L 253.07 157.89 L 253.83 157.75 L 254.59 157.58 L 255.34 157.38 L 256.08 157.14 L 256.81 156.88 L 257.54 156.59 L 258.25 156.26 L 258.95 155.91 L 259.64 155.52 L 260.32 155.1 L 260.99 154.65 L 261.63 154.17 L 262.26 153.66 L 262.88 153.12 L 263.47 152.55 L 264.05 151.94 L 293.46 119.78 L 291.71 119.1 L 287.01 117.5 L 282.24 116.09 L 277.39 114.9 L 272.48 113.91 L 267.5 113.13 L 262.46 112.57 L 257.36 112.23 L 252.22 112.11 L 247.07 112.23 L 241.97 112.57 L 241.97 112.57 L 236.93 113.13 Z" stroke-linecap="round" />
</g>
<g transform="matrix(1 0 0 1 250 250)" id="NfttDPaqbqurVPQxz6wEk"  >
<linearGradient id="SVGID_2" gradientUnits="userSpaceOnUse" gradientTransform="matrix(1 0 0 1 76 58.47)"  x1="36.89839572192511" y1="34.11026737967916" x2="312.96064171123" y2="343.20117647058817">
<stop offset="0%" style="stop-color:#FF0000;stop-opacity: 1"/>
<stop offset="52.76617634471405%" style="stop-color:#920000;stop-opacity: 1"/>
<stop offset="100%" style="stop-color:#420000;stop-opacity: 1"/>
</linearGradient>
<path style="stroke: none; stroke-width: 1; stroke-dasharray: none; stroke-linecap: butt; stroke-dashoffset: 0; stroke-linejoin: miter; stroke-miterlimit: 4; fill: url(#SVGID_2); fill-rule: nonzero; opacity: 1;" vector-effect="non-scaling-stroke"  transform=" translate(-249.86, -248.73)" d="M 361.57 67.07 L 367.87 71.92 L 373.98 77.03 L 379.91 82.39 L 385.64 87.98 L 391.17 93.82 L 396.5 99.87 L 401.61 106.15 L 406.5 112.64 L 411.17 119.34 L 415.6 126.23 L 419.8 133.32 L 423.72 140.54 L 338.73 233.5 L 338.14 234.17 L 337.59 234.84 L 337.07 235.54 L 336.58 236.25 L 336.11 236.97 L 335.68 237.7 L 335.28 238.45 L 334.91 239.21 L 334.56 239.98 L 334.25 240.76 L 333.97 241.54 L 333.71 242.34 L 333.49 243.14 L 333.3 243.95 L 333.13 244.76 L 333 245.58 L 332.89 246.4 L 332.82 247.22 L 332.77 248.05 L 332.76 248.87 L 332.77 249.7 L 332.82 250.53 L 332.89 251.35 L 333 252.17 L 333.13 252.99 L 333.3 253.8 L 333.49 254.61 L 333.71 255.41 L 333.97 256.21 L 334.25 256.99 L 334.56 257.77 L 334.91 258.54 L 335.28 259.3 L 335.68 260.05 L 336.11 260.78 L 336.58 261.5 L 337.07 262.21 L 337.59 262.91 L 338.14 263.58 L 338.72 264.24 L 423.56 357.04 L 419.8 363.97 L 415.6 371.05 L 411.17 377.95 L 406.5 384.64 L 401.61 391.13 L 396.5 397.41 L 391.17 403.47 L 385.64 409.3 L 379.91 414.9 L 373.98 420.26 L 367.87 425.36 L 361.57 430.22 L 355.1 434.81 L 348.69 438.99 L 263.83 346.17 L 263.25 345.56 L 262.66 344.99 L 262.05 344.45 L 261.41 343.94 L 260.77 343.46 L 260.1 343.01 L 259.43 342.59 L 258.73 342.21 L 258.03 341.85 L 257.32 341.52 L 256.59 341.23 L 255.86 340.97 L 255.12 340.73 L 254.37 340.53 L 253.61 340.36 L 252.85 340.22 L 252.09 340.12 L 251.32 340.04 L 250.55 339.99 L 249.78 339.98 L 249.01 339.99 L 248.24 340.04 L 247.47 340.12 L 246.71 340.22 L 245.95 340.36 L 245.19 340.53 L 244.44 340.73 L 243.7 340.97 L 242.97 341.23 L 242.24 341.52 L 241.53 341.85 L 240.83 342.21 L 240.13 342.59 L 239.46 343.01 L 238.79 343.46 L 238.15 343.94 L 237.51 344.45 L 236.9 344.99 L 236.3 345.56 L 235.73 346.17 L 150.87 438.99 L 144.46 434.81 L 137.99 430.22 L 131.69 425.36 L 125.58 420.26 L 119.65 414.9 L 113.92 409.3 L 108.39 403.47 L 103.06 397.41 L 97.95 391.13 L 93.06 384.64 L 88.39 377.95 L 83.96 371.05 L 79.76 363.97 L 76 357.04 L 91.83 339.72 L 120.3 309.32 L 163.84 263.91 L 164.43 263.26 L 165 262.6 L 165.54 261.92 L 166.05 261.22 L 166.53 260.51 L 166.98 259.79 L 167.4 259.05 L 167.79 258.3 L 168.15 257.54 L 168.48 256.77 L 168.78 255.99 L 169.05 255.2 L 169.29 254.4 L 169.5 253.6 L 169.69 252.79 L 169.84 251.98 L 169.96 251.16 L 170.05 250.34 L 170.12 249.52 L 170.15 248.69 L 170.15 247.87 L 170.13 247.04 L 170.07 246.22 L 169.99 245.4 L 169.87 244.58 L 169.72 243.76 L 169.55 242.95 L 169.34 242.14 L 169.11 241.34 L 168.84 240.55 L 168.54 239.77 L 168.22 238.99 L 167.86 238.22 L 167.48 237.47 L 167.06 236.73 L 166.61 235.99 L 166.14 235.28 L 165.63 234.57 L 165.09 233.88 L 164.53 233.21 L 78.71 135.26 L 79.76 133.32 L 83.96 126.23 L 88.39 119.34 L 93.06 112.64 L 97.95 106.15 L 103.06 99.87 L 108.39 93.82 L 113.92 87.98 L 119.65 82.39 L 125.58 77.03 L 131.69 71.92 L 137.99 67.07 L 144.46 62.47 L 150.61 58.47 L 235.73 151.58 L 236.3 152.19 L 236.9 152.76 L 237.51 153.3 L 238.15 153.81 L 238.79 154.29 L 239.46 154.74 L 240.13 155.16 L 240.83 155.54 L 241.53 155.9 L 242.24 156.23 L 242.97 156.52 L 243.7 156.78 L 244.44 157.02 L 245.19 157.22 L 245.95 157.39 L 246.71 157.53 L 247.47 157.63 L 248.24 157.71 L 249.01 157.76 L 249.78 157.77 L 250.55 157.76 L 251.32 157.71 L 252.09 157.63 L 252.85 157.53 L 253.61 157.39 L 254.37 157.22 L 255.12 157.02 L 255.86 156.78 L 256.59 156.52 L 257.32 156.23 L 258.03 155.9 L 258.73 155.55 L 259.43 155.16 L 260.1 154.74 L 260.77 154.29 L 261.41 153.81 L 262.05 153.3 L 262.66 152.76 L 263.25 152.19 L 263.83 151.58 L 348.95 58.47 L 355.1 62.47 L 361.57 67.07 Z" stroke-linecap="round" />
</g>
</svg>