<?xml version="1.0" encoding="UTF-8" standalone="no"?>
<!DOCTYPE svg PUBLIC "-//W3C//DTD SVG 1.1//EN" "http://www.w3.org/Graphics/SVG/1.1/DTD/svg11.dtd">
<svg version="1.1" xmlns="http://www.w3.org/2000/svg" xmlns:xlink="http://www.w3.org/1999/xlink" preserveAspectRatio="xMidYMid meet" viewBox="0 0 500 500" width="500" height="500"><defs><path d="M274.46 31.62L282.43 32.87L290.29 34.45L298.04 36.37L305.68 38.61L313.19 41.17L320.57 44.04L327.82 47.22L334.93 50.7L341.88 54.46L348.68 58.51L355.32 62.83L361.79 67.42L368.09 72.28L374.2 77.39L380.13 82.74L385.87 88.34L391.4 94.17L396.72 100.23L401.84 106.51L406.73 113L411.39 119.7L415.83 126.59L420.02 133.68L423.97 140.95L427.67 148.39L431.1 156.01L434.28 163.79L437.18 171.73L439.8 179.81L442.14 188.04L444.19 196.4L445.94 204.89L447.38 213.5L448.52 222.22L449.34 231.05L449.84 239.98L450 249L449.84 258.02L449.34 266.95L448.52 275.78L447.38 284.5L445.94 293.11L444.19 301.6L442.14 309.96L439.8 318.19L437.18 326.27L434.28 334.21L431.1 341.99L427.67 349.61L423.97 357.05L420.02 364.32L415.83 371.41L411.39 378.3L406.73 385L401.84 391.49L396.72 397.77L391.4 403.83L385.87 409.66L380.13 415.26L374.2 420.61L368.09 425.72L361.79 430.58L355.32 435.17L348.68 439.49L341.88 443.54L334.93 447.3L327.82 450.78L320.57 453.96L313.19 456.83L305.68 459.39L298.04 461.63L290.29 463.55L282.43 465.13L274.46 466.38L266.4 467.27L258.24 467.82L250 468L241.77 467.82L233.61 467.27L225.55 466.38L217.58 465.13L209.72 463.55L201.97 461.63L194.33 459.39L186.82 456.83L179.43 453.96L172.19 450.78L165.08 447.3L158.13 443.54L151.32 439.49L151.1 439.34L151.1 439.35L144.68 435.17L138.21 430.58L131.91 425.72L125.8 420.61L119.87 415.26L114.14 409.66L108.61 403.83L103.28 397.77L98.17 391.49L93.28 385L88.61 378.3L84.18 371.41L79.98 364.32L76.22 357.4L76.22 357.4L76.04 357.05L72.34 349.61L68.9 341.99L65.73 334.21L62.83 326.27L60.21 318.19L57.87 309.96L55.82 301.6L54.07 293.11L52.62 284.5L51.49 275.78L50.67 266.95L50.17 258.02L50 249L50.17 239.98L50.67 231.05L51.49 222.22L52.62 213.5L54.07 204.89L55.82 196.4L57.87 188.04L60.21 179.81L62.83 171.73L65.73 163.79L68.9 156.01L72.34 148.39L76.04 140.95L78.93 135.62L78.93 135.62L79.98 133.68L84.18 126.59L88.61 119.7L93.28 113L98.17 106.51L103.28 100.23L108.61 94.17L114.14 88.34L119.87 82.74L125.8 77.39L131.91 72.28L138.21 67.42L144.68 62.83L150.83 58.83L150.83 58.83L151.32 58.51L158.13 54.46L165.08 50.7L172.19 47.22L179.43 44.04L186.82 41.17L194.33 38.61L201.97 36.37L209.72 34.45L217.58 32.87L225.55 31.62L233.61 30.73L241.77 30.18L250 30L258.24 30.18L266.4 30.73L266.4 30.73L274.46 31.62ZM247.69 340.48L246.93 340.58L246.17 340.72L245.41 340.89L244.66 341.09L243.92 341.33L243.19 341.59L242.46 341.88L241.75 342.21L241.04 342.57L240.35 342.95L239.68 343.37L239.01 343.82L238.37 344.3L237.73 344.81L237.12 345.35L236.52 345.93L235.95 346.53L208.04 377.06L208.11 377.09L212.72 378.88L217.42 380.48L222.19 381.88L227.04 383.08L231.95 384.07L236.93 384.85L241.97 385.41L247.07 385.75L252.22 385.86L257.36 385.75L262.46 385.41L267.5 384.85L272.48 384.07L277.39 383.08L282.24 381.88L287.01 380.48L291.71 378.88L293.12 378.33L264.05 346.53L263.47 345.93L262.88 345.35L262.26 344.81L261.63 344.3L260.99 343.82L260.32 343.37L259.64 342.95L258.95 342.57L258.25 342.21L257.54 341.88L256.81 341.59L256.08 341.33L255.34 341.09L254.59 340.89L253.83 340.72L253.07 340.58L252.31 340.48L251.54 340.4L250.77 340.35L250 340.34L249.23 340.35L248.46 340.4L248.46 340.4L247.69 340.48ZM337.81 235.2L337.29 235.9L336.8 236.61L336.33 237.33L335.9 238.06L335.5 238.81L335.13 239.57L334.78 240.34L334.47 241.12L334.19 241.9L333.93 242.7L333.71 243.5L333.51 244.31L333.35 245.12L333.22 245.94L333.11 246.76L333.04 247.58L332.99 248.41L332.98 249.24L332.99 250.06L333.04 250.89L333.11 251.71L333.22 252.53L333.35 253.35L333.51 254.16L333.71 254.97L333.93 255.77L334.19 256.57L334.47 257.35L334.78 258.13L335.13 258.9L335.5 259.66L335.9 260.41L336.33 261.14L336.8 261.86L337.29 262.57L337.81 263.27L338.36 263.94L338.94 264.61L369.09 297.58L369.2 297.29L370.84 292.23L372.3 287.09L373.58 281.87L374.67 276.56L375.58 271.18L376.29 265.73L376.8 260.21L377.11 254.63L377.22 248.99L377.11 243.35L376.8 237.77L376.29 232.25L375.58 226.8L374.67 221.42L373.58 216.11L372.3 210.89L370.84 205.75L369.22 200.75L338.94 233.86L338.36 234.53L338.36 234.53L337.81 235.2ZM132.13 210.89L130.85 216.11L129.76 221.42L128.85 226.8L128.14 232.25L127.63 237.77L127.32 243.35L127.22 248.99L127.32 254.63L127.63 260.21L128.14 265.73L128.85 271.18L129.76 276.56L130.85 281.87L132.13 287.09L133.59 292.23L134.52 295.08L164.06 264.27L164.65 263.62L165.22 262.96L165.76 262.28L166.27 261.58L166.75 260.87L167.19 260.15L167.61 259.41L168 258.66L168.37 257.9L168.7 257.13L169 256.35L169.27 255.56L169.51 254.77L169.72 253.96L169.9 253.15L170.06 252.34L170.18 251.52L170.27 250.7L170.34 249.88L170.37 249.05L170.37 248.23L170.35 247.4L170.29 246.58L170.21 245.76L170.09 244.94L169.94 244.12L169.77 243.31L169.56 242.5L169.33 241.7L169.06 240.91L168.76 240.13L168.44 239.35L168.08 238.58L167.7 237.83L167.28 237.09L166.83 236.35L166.36 235.64L165.85 234.93L165.31 234.24L164.75 233.57L135.44 200.12L135.23 200.69L133.59 205.75L133.59 205.75L132.13 210.89ZM236.93 113.13L231.95 113.91L227.04 114.9L222.19 116.09L217.42 117.5L212.72 119.1L208.11 120.89L207.72 121.06L235.95 151.94L236.52 152.55L237.12 153.12L237.73 153.66L238.37 154.17L239.01 154.65L239.68 155.1L240.35 155.52L241.04 155.91L241.75 156.26L242.46 156.59L243.19 156.88L243.92 157.14L244.66 157.38L245.41 157.58L246.17 157.75L246.93 157.89L247.69 158L248.46 158.07L249.23 158.12L250 158.13L250.77 158.12L251.54 158.07L252.31 158L253.07 157.89L253.83 157.75L254.59 157.58L255.34 157.38L256.08 157.14L256.81 156.88L257.54 156.59L258.25 156.26L258.95 155.91L259.64 155.52L260.32 155.1L260.99 154.65L261.63 154.17L262.26 153.66L262.88 153.12L263.47 152.55L264.05 151.94L293.46 119.78L291.71 119.1L287.01 117.5L282.24 116.09L277.39 114.9L272.48 113.91L267.5 113.13L262.46 112.57L257.36 112.23L252.22 112.11L247.07 112.23L241.97 112.57L241.97 112.57L236.93 113.13Z" id="cP6F3PC1H"></path><path d="M361.57 67.07L367.87 71.92L373.98 77.03L379.91 82.39L385.64 87.98L391.17 93.82L396.5 99.87L401.61 106.15L406.5 112.64L411.17 119.34L415.6 126.23L419.8 133.32L423.72 140.54L338.73 233.5L338.14 234.17L337.59 234.84L337.07 235.54L336.58 236.25L336.11 236.97L335.68 237.7L335.28 238.45L334.91 239.21L334.56 239.98L334.25 240.76L333.97 241.54L333.71 242.34L333.49 243.14L333.3 243.95L333.13 244.76L333 245.58L332.89 246.4L332.82 247.22L332.77 248.05L332.76 248.87L332.77 249.7L332.82 250.53L332.89 251.35L333 252.17L333.13 252.99L333.3 253.8L333.49 254.61L333.71 255.41L333.97 256.21L334.25 256.99L334.56 257.77L334.91 258.54L335.28 259.3L335.68 260.05L336.11 260.78L336.58 261.5L337.07 262.21L337.59 262.91L338.14 263.58L338.72 264.24L423.56 357.04L419.8 363.97L415.6 371.05L411.17 377.95L406.5 384.64L401.61 391.13L396.5 397.41L391.17 403.47L385.64 409.3L379.91 414.9L373.98 420.26L367.87 425.36L361.57 430.22L355.1 434.81L348.69 438.99L263.83 346.17L263.25 345.56L262.66 344.99L262.05 344.45L261.41 343.94L260.77 343.46L260.1 343.01L259.43 342.59L258.73 342.21L258.03 341.85L257.32 341.52L256.59 341.23L255.86 340.97L255.12 340.73L254.37 340.53L253.61 340.36L252.85 340.22L252.09 340.12L251.32 340.04L250.55 339.99L249.78 339.98L249.01 339.99L248.24 340.04L247.47 340.12L246.71 340.22L245.95 340.36L245.19 340.53L244.44 340.73L243.7 340.97L242.97 341.23L242.24 341.52L241.53 341.85L240.83 342.21L240.13 342.59L239.46 343.01L238.79 343.46L238.15 343.94L237.51 344.45L236.9 344.99L236.3 345.56L235.73 346.17L150.87 438.99L144.46 434.81L137.99 430.22L131.69 425.36L125.58 420.26L119.65 414.9L113.92 409.3L108.39 403.47L103.06 397.41L97.95 391.13L93.06 384.64L88.39 377.95L83.96 371.05L79.76 363.97L76 357.04L91.83 339.72L120.3 309.32L163.84 263.91L164.43 263.26L165 262.6L165.54 261.92L166.05 261.22L166.53 260.51L166.98 259.79L167.4 259.05L167.79 258.3L168.15 257.54L168.48 256.77L168.78 255.99L169.05 255.2L169.29 254.4L169.5 253.6L169.69 252.79L169.84 251.98L169.96 251.16L170.05 250.34L170.12 249.52L170.15 248.69L170.15 247.87L170.13 247.04L170.07 246.22L169.99 245.4L169.87 244.58L169.72 243.76L169.55 242.95L169.34 242.14L169.11 241.34L168.84 240.55L168.54 239.77L168.22 238.99L167.86 238.22L167.48 237.47L167.06 236.73L166.61 235.99L166.14 235.28L165.63 234.57L165.09 233.88L164.53 233.21L78.71 135.26L79.76 133.32L83.96 126.23L88.39 119.34L93.06 112.64L97.95 106.15L103.06 99.87L108.39 93.82L113.92 87.98L119.65 82.39L125.58 77.03L131.69 71.92L137.99 67.07L144.46 62.47L150.61 58.47L235.73 151.58L236.3 152.19L236.9 152.76L237.51 153.3L238.15 153.81L238.79 154.29L239.46 154.74L240.13 155.16L240.83 155.54L241.53 155.9L242.24 156.23L242.97 156.52L243.7 156.78L244.44 157.02L245.19 157.22L245.95 157.39L246.71 157.53L247.47 157.63L248.24 157.71L249.01 157.76L249.78 157.77L250.55 157.76L251.32 157.71L252.09 157.63L252.85 157.53L253.61 157.39L254.37 157.22L255.12 157.02L255.86 156.78L256.59 156.52L257.32 156.23L258.03 155.9L258.73 155.55L259.43 155.16L260.1 154.74L260.77 154.29L261.41 153.81L262.05 153.3L262.66 152.76L263.25 152.19L263.83 151.58L348.95 58.47L355.1 62.47L361.57 67.07Z" id="boRsjoCpF"></path><path d="M305.91 124.19L310.32 126.54L314.63 129.07L318.85 131.78L322.95 134.65L326.94 137.68L330.82 140.87L334.58 144.22L338.22 147.72L341.73 151.36L345.1 155.15L348.35 159.08L351.45 163.13L354.41 167.32L357.22 171.63L359.88 176.05L362.38 180.6L364.73 185.25L366.91 190.01L368.92 194.87L370.23 198.4L338.93 232.64L338.35 233.3L337.8 233.98L337.27 234.67L336.78 235.38L336.32 236.1L335.89 236.84L335.48 237.58L335.11 238.34L334.77 239.11L334.45 239.89L334.17 240.68L333.92 241.47L333.69 242.27L333.5 243.08L333.33 243.89L333.2 244.71L333.1 245.53L333.02 246.36L332.98 247.18L332.96 248.01L332.98 248.83L333.02 249.66L333.1 250.48L333.2 251.3L333.33 252.12L333.5 252.94L333.69 253.74L333.92 254.55L334.17 255.34L334.45 256.13L334.77 256.91L335.11 257.68L335.48 258.43L335.89 259.18L336.32 259.92L336.78 260.64L337.27 261.35L337.8 262.04L338.35 262.72L338.93 263.38L370.29 297.69L368.92 301.39L366.91 306.25L364.73 311.01L362.38 315.67L359.88 320.21L357.22 324.64L354.41 328.95L351.45 333.13L348.35 337.19L345.1 341.11L341.73 344.9L338.22 348.54L334.58 352.04L330.82 355.39L326.94 358.58L322.95 361.62L318.85 364.49L314.63 367.19L310.32 369.72L305.91 372.07L301.4 374.24L296.81 376.23L293.48 377.51L264.03 345.3L263.46 344.7L262.86 344.13L262.25 343.58L261.62 343.07L260.97 342.59L260.31 342.14L259.63 341.73L258.94 341.34L258.24 340.98L257.52 340.66L256.8 340.36L256.06 340.1L255.32 339.87L254.57 339.67L253.82 339.5L253.06 339.36L252.29 339.25L251.52 339.17L250.75 339.13L249.98 339.11L249.21 339.13L248.44 339.17L247.68 339.25L246.91 339.36L246.15 339.5L245.4 339.67L244.65 339.87L243.9 340.1L243.17 340.36L242.45 340.66L241.73 340.98L241.03 341.34L240.34 341.73L239.66 342.14L239 342.59L238.35 343.07L237.72 343.58L237.1 344.13L236.51 344.7L235.93 345.3L207.57 376.33L207.29 376.23L202.7 374.24L198.19 372.07L193.78 369.72L189.46 367.19L185.25 364.49L181.15 361.62L177.16 358.58L173.28 355.39L169.52 352.04L165.88 348.54L162.37 344.9L159 341.11L155.75 337.19L152.65 333.13L149.69 328.95L146.88 324.64L144.22 320.21L141.72 315.67L139.37 311.01L137.19 306.25L135.18 301.39L133.34 296.43L133 295.41L164.04 263.04L164.64 262.39L165.2 261.73L165.74 261.05L166.25 260.35L166.73 259.64L167.18 258.92L167.6 258.18L167.99 257.43L168.35 256.67L168.68 255.9L168.98 255.12L169.25 254.33L169.49 253.54L169.71 252.74L169.89 251.93L170.04 251.11L170.16 250.3L170.26 249.48L170.32 248.65L170.35 247.83L170.36 247L170.33 246.18L170.28 245.35L170.19 244.53L170.07 243.71L169.93 242.89L169.75 242.08L169.55 241.28L169.31 240.48L169.04 239.68L168.75 238.9L168.42 238.12L168.07 237.36L167.68 236.6L167.26 235.86L166.82 235.13L166.34 234.41L165.83 233.71L165.3 233.02L164.73 232.34L134.2 197.5L135.18 194.87L137.19 190.01L139.37 185.25L141.72 180.6L144.22 176.05L146.88 171.63L149.69 167.32L152.65 163.13L155.75 159.08L159 155.15L162.37 151.36L165.88 147.72L169.52 144.22L173.28 140.87L177.16 137.68L181.15 134.65L185.25 131.78L189.46 129.07L193.78 126.54L198.19 124.19L202.7 122.02L207.29 120.03L207.73 119.87L235.93 150.72L236.51 151.32L237.1 151.89L237.72 152.43L238.35 152.94L239 153.42L239.66 153.87L240.34 154.29L241.03 154.68L241.73 155.03L242.45 155.36L243.17 155.65L243.9 155.92L244.65 156.15L245.4 156.35L246.15 156.52L246.91 156.66L247.68 156.77L248.44 156.85L249.21 156.89L249.98 156.91L250.75 156.89L251.52 156.85L252.29 156.77L253.06 156.66L253.82 156.52L254.57 156.35L255.32 156.15L256.06 155.92L256.8 155.65L257.52 155.36L258.24 155.03L258.94 154.68L259.63 154.29L260.31 153.87L260.97 153.42L261.62 152.94L262.25 152.43L262.86 151.89L263.46 151.32L264.03 150.72L293.31 118.69L296.81 120.03L301.4 122.02L301.4 122.02L305.91 124.19Z" id="a7jI03zGpc"></path></defs><g><g><g><g><filter id="shadow12184883" x="22" y="2" width="463" height="502" filterUnits="userSpaceOnUse" primitiveUnits="userSpaceOnUse"><feFlood></feFlood><feComposite in2="SourceAlpha" operator="in"></feComposite><feGaussianBlur stdDeviation="2.45"></feGaussianBlur><feOffset dx="7" dy="8" result="afterOffset"></feOffset><feFlood flood-color="#000000" flood-opacity="0.5"></feFlood><feComposite in2="afterOffset" operator="in"></feComposite><feMorphology operator="dilate" radius="3"></feMorphology><feComposite in2="SourceAlpha" operator="out"></feComposite></filter><path d="M274.46 31.62L282.43 32.87L290.29 34.45L298.04 36.37L305.68 38.61L313.19 41.17L320.57 44.04L327.82 47.22L334.93 50.7L341.88 54.46L348.68 58.51L355.32 62.83L361.79 67.42L368.09 72.28L374.2 77.39L380.13 82.74L385.87 88.34L391.4 94.17L396.72 100.23L401.84 106.51L406.73 113L411.39 119.7L415.83 126.59L420.02 133.68L423.97 140.95L427.67 148.39L431.1 156.01L434.28 163.79L437.18 171.73L439.8 179.81L442.14 188.04L444.19 196.4L445.94 204.89L447.38 213.5L448.52 222.22L449.34 231.05L449.84 239.98L450 249L449.84 258.02L449.34 266.95L448.52 275.78L447.38 284.5L445.94 293.11L444.19 301.6L442.14 309.96L439.8 318.19L437.18 326.27L434.28 334.21L431.1 341.99L427.67 349.61L423.97 357.05L420.02 364.32L415.83 371.41L411.39 378.3L406.73 385L401.84 391.49L396.72 397.77L391.4 403.83L385.87 409.66L380.13 415.26L374.2 420.61L368.09 425.72L361.79 430.58L355.32 435.17L348.68 439.49L341.88 443.54L334.93 447.3L327.82 450.78L320.57 453.96L313.19 456.83L305.68 459.39L298.04 461.63L290.29 463.55L282.43 465.13L274.46 466.38L266.4 467.27L258.24 467.82L250 468L241.77 467.82L233.61 467.27L225.55 466.38L217.58 465.13L209.72 463.55L201.97 461.63L194.33 459.39L186.82 456.83L179.43 453.96L172.19 450.78L165.08 447.3L158.13 443.54L151.32 439.49L151.1 439.34L151.1 439.35L144.68 435.17L138.21 430.58L131.91 425.72L125.8 420.61L119.87 415.26L114.14 409.66L108.61 403.83L103.28 397.77L98.17 391.49L93.28 385L88.61 378.3L84.18 371.41L79.98 364.32L76.22 357.4L76.22 357.4L76.04 357.05L72.34 349.61L68.9 341.99L65.73 334.21L62.83 326.27L60.21 318.19L57.87 309.96L55.82 301.6L54.07 293.11L52.62 284.5L51.49 275.78L50.67 266.95L50.17 258.02L50 249L50.17 239.98L50.67 231.05L51.49 222.22L52.62 213.5L54.07 204.89L55.82 196.4L57.87 188.04L60.21 179.81L62.83 171.73L65.73 163.79L68.9 156.01L72.34 148.39L76.04 140.95L78.93 135.62L78.93 135.62L79.98 133.68L84.18 126.59L88.61 119.7L93.28 113L98.17 106.51L103.28 100.23L108.61 94.17L114.14 88.34L119.87 82.74L125.8 77.39L131.91 72.28L138.21 67.42L144.68 62.83L150.83 58.83L150.83 58.83L151.32 58.51L158.13 54.46L165.08 50.7L172.19 47.22L179.43 44.04L186.82 41.17L194.33 38.61L201.97 36.37L209.72 34.45L217.58 32.87L225.55 31.62L233.61 30.73L241.77 30.18L250 30L258.24 30.18L266.4 30.73L266.4 30.73L274.46 31.62ZM247.69 340.48L246.93 340.58L246.17 340.72L245.41 340.89L244.66 341.09L243.92 341.33L243.19 341.59L242.46 341.88L241.75 342.21L241.04 342.57L240.35 342.95L239.68 343.37L239.01 343.82L238.37 344.3L237.73 344.81L237.12 345.35L236.52 345.93L235.95 346.53L208.04 377.06L208.11 377.09L212.72 378.88L217.42 380.48L222.19 381.88L227.04 383.08L231.95 384.07L236.93 384.85L241.97 385.41L247.07 385.75L252.22 385.86L257.36 385.75L262.46 385.41L267.5 384.85L272.48 384.07L277.39 383.08L282.24 381.88L287.01 380.48L291.71 378.88L293.12 378.33L264.05 346.53L263.47 345.93L262.88 345.35L262.26 344.81L261.63 344.3L260.99 343.82L260.32 343.37L259.64 342.95L258.95 342.57L258.25 342.21L257.54 341.88L256.81 341.59L256.08 341.33L255.34 341.09L254.59 340.89L253.83 340.72L253.07 340.58L252.31 340.48L251.54 340.4L250.77 340.35L250 340.34L249.23 340.35L248.46 340.4L248.46 340.4L247.69 340.48ZM337.81 235.2L337.29 235.9L336.8 236.61L336.33 237.33L335.9 238.06L335.5 238.81L335.13 239.57L334.78 240.34L334.47 241.12L334.19 241.9L333.93 242.7L333.71 243.5L333.51 244.31L333.35 245.12L333.22 245.94L333.11 246.76L333.04 247.58L332.99 248.41L332.98 249.24L332.99 250.06L333.04 250.89L333.11 251.71L333.22 252.53L333.35 253.35L333.51 254.16L333.71 254.97L333.93 255.77L334.19 256.57L334.47 257.35L334.78 258.13L335.13 258.9L335.5 259.66L335.9 260.41L336.33 261.14L336.8 261.86L337.29 262.57L337.81 263.27L338.36 263.94L338.94 264.61L369.09 297.58L369.2 297.29L370.84 292.23L372.3 287.09L373.58 281.87L374.67 276.56L375.58 271.18L376.29 265.73L376.8 260.21L377.11 254.63L377.22 248.99L377.11 243.35L376.8 237.77L376.29 232.25L375.58 226.8L374.67 221.42L373.58 216.11L372.3 210.89L370.84 205.75L369.22 200.75L338.94 233.86L338.36 234.53L338.36 234.53L337.81 235.2ZM132.13 210.89L130.85 216.11L129.76 221.42L128.85 226.8L128.14 232.25L127.63 237.77L127.32 243.35L127.22 248.99L127.32 254.63L127.63 260.21L128.14 265.73L128.85 271.18L129.76 276.56L130.85 281.87L132.13 287.09L133.59 292.23L134.52 295.08L164.06 264.27L164.65 263.62L165.22 262.96L165.76 262.28L166.27 261.58L166.75 260.87L167.19 260.15L167.61 259.41L168 258.66L168.37 257.9L168.7 257.13L169 256.35L169.27 255.56L169.51 254.77L169.72 253.96L169.9 253.15L170.06 252.34L170.18 251.52L170.27 250.7L170.34 249.88L170.37 249.05L170.37 248.23L170.35 247.4L170.29 246.58L170.21 245.76L170.09 244.94L169.94 244.12L169.77 243.31L169.56 242.5L169.33 241.7L169.06 240.91L168.76 240.13L168.44 239.35L168.08 238.58L167.7 237.83L167.28 237.09L166.83 236.35L166.36 235.64L165.85 234.93L165.31 234.24L164.75 233.57L135.44 200.12L135.23 200.69L133.59 205.75L133.59 205.75L132.13 210.89ZM236.93 113.13L231.95 113.91L227.04 114.9L222.19 116.09L217.42 117.5L212.72 119.1L208.11 120.89L207.72 121.06L235.95 151.94L236.52 152.55L237.12 153.12L237.73 153.66L238.37 154.17L239.01 154.65L239.68 155.1L240.35 155.52L241.04 155.91L241.75 156.26L242.46 156.59L243.19 156.88L243.92 157.14L244.66 157.38L245.41 157.58L246.17 157.75L246.93 157.89L247.69 158L248.46 158.07L249.23 158.12L250 158.13L250.77 158.12L251.54 158.07L252.31 158L253.07 157.89L253.83 157.75L254.59 157.58L255.34 157.38L256.08 157.14L256.81 156.88L257.54 156.59L258.25 156.26L258.95 155.91L259.64 155.52L260.32 155.1L260.99 154.65L261.63 154.17L262.26 153.66L262.88 153.12L263.47 152.55L264.05 151.94L293.46 119.78L291.71 119.1L287.01 117.5L282.24 116.09L277.39 114.9L272.48 113.91L267.5 113.13L262.46 112.57L257.36 112.23L252.22 112.11L247.07 112.23L241.97 112.57L241.97 112.57L236.93 113.13Z" id="c19d3p857c" fill="white" fill-opacity="1" filter="url(#shadow12184883)"></path></g><use xlink:href="#cP6F3PC1H" opacity="1" fill="#210a92" fill-opacity="1"></use></g><g><use xlink:href="#boRsjoCpF" opacity="1" fill="#ae0000" fill-opacity="1"></use></g><g><use xlink:href="#a7jI03zGpc" opacity="1" fill="#ae0000" fill-opacity="1"></use></g></g></g></svg>